<?xml version="1.0" standalone="no"?>
<!DOCTYPE svg PUBLIC "-//W3C//DTD SVG 20010904//EN"
 "http://www.w3.org/TR/2001/REC-SVG-20010904/DTD/svg10.dtd">
<svg version="1.0" xmlns="http://www.w3.org/2000/svg"
 width="900.000000pt" height="900.000000pt" viewBox="0 0 900.000000 900.000000"
 preserveAspectRatio="xMidYMid meet">
<metadata>
Created by potrace 1.10, written by Peter Selinger 2001-2011
</metadata>
<g transform="translate(0.000000,900.000000) scale(0.100000,-0.100000)"
fill="#ed2a07" stroke="none">
<path d="M4710 8010 l-1575 -5 -58 -22 c-104 -39 -207 -140 -270 -266 l-32
-62 -5 -1615 c-3 -1069 -2 -1619 5 -1627 7 -9 35 -10 105 -4 52 5 388 8 746 7
l652 -1 -6 34 c-5 36 7 51 46 51 25 0 46 -40 37 -70 -5 -16 19 -17 412 -14
230 2 596 4 813 6 434 3 425 2 535 69 97 59 154 116 192 193 64 131 62 97 63
1350 0 625 -4 1136 -8 1136 -5 0 -29 -7 -53 -15 -73 -25 -207 -43 -223 -31
-20 16 -26 53 -11 72 10 15 37 20 141 27 71 5 135 11 142 13 10 3 12 86 10
391 l-3 388 -40 0 c-22 1 -749 -2 -1615 -5z m1495 -115 c38 -2 40 -4 47 -41 3
-21 7 -139 8 -260 2 -223 -3 -264 -34 -264 -8 0 -19 -7 -27 -16 -7 -8 -21 -13
-31 -11 -10 3 -28 -3 -41 -13 -32 -26 -90 -38 -182 -39 -92 -1 -179 -17 -212
-38 -14 -9 -52 -16 -96 -18 -77 -3 -173 -19 -248 -42 -50 -15 -114 -27 -257
-48 -51 -7 -112 -23 -135 -33 -23 -11 -67 -23 -97 -27 -69 -8 -155 -29 -245
-60 -38 -13 -110 -33 -158 -45 -80 -19 -159 -45 -212 -70 -21 -10 -155 -58
-190 -68 -11 -3 -65 -32 -120 -65 -165 -97 -245 -202 -232 -305 7 -59 24 -94
81 -160 46 -53 138 -132 154 -132 5 0 21 -9 36 -21 41 -32 153 -89 175 -89 11
0 23 -5 26 -10 8 -13 84 -50 102 -50 7 0 64 -20 125 -45 62 -25 118 -45 125
-45 8 0 43 -13 78 -30 35 -16 69 -30 75 -30 23 0 151 -83 181 -117 16 -19 33
-33 36 -30 7 8 -7 47 -18 47 -5 0 -9 6 -9 13 0 10 -28 33 -84 69 -36 24 -197
97 -226 103 -19 4 -56 18 -82 31 -26 13 -57 24 -69 24 -12 0 -40 9 -63 19 -82
38 -114 51 -128 51 -8 0 -25 11 -38 25 -14 15 -40 28 -62 31 -38 7 -45 17 -29
43 8 12 12 12 26 -2 9 -10 22 -17 29 -17 8 0 19 -7 26 -15 8 -9 29 -15 56 -15
23 0 45 -4 48 -9 3 -4 39 -14 80 -20 53 -9 85 -20 112 -40 20 -16 45 -26 54
-24 10 3 31 -2 48 -11 17 -9 42 -16 56 -16 14 0 28 -4 31 -10 3 -5 32 -10 63
-10 55 0 75 -7 202 -70 19 -10 63 -21 96 -25 34 -3 77 -16 95 -28 56 -34 132
-77 165 -92 44 -20 84 -71 84 -106 0 -15 -9 -43 -20 -61 -23 -38 -125 -128
-146 -128 -8 0 -14 -6 -14 -14 0 -18 -117 -121 -240 -212 -36 -26 -94 -75
-130 -109 -36 -33 -85 -77 -110 -97 -25 -19 -90 -76 -145 -127 -55 -50 -118
-104 -140 -119 -22 -15 -83 -66 -134 -115 -62 -57 -107 -91 -130 -97 -20 -5
-216 -9 -437 -9 -317 0 -405 2 -419 13 -25 18 -13 32 32 39 33 4 167 61 245
103 14 8 36 14 47 14 23 0 71 27 84 47 4 7 14 10 21 7 12 -5 37 5 171 66 53
24 120 54 145 64 8 3 22 10 30 15 8 5 71 37 139 70 68 33 130 66 138 73 8 6
38 20 66 30 28 10 55 25 60 33 4 8 21 22 37 30 17 9 30 20 30 25 0 18 -26 11
-56 -15 -16 -14 -36 -25 -45 -25 -8 0 -33 -13 -55 -30 -21 -16 -47 -30 -57
-30 -9 0 -25 -9 -34 -20 -10 -11 -26 -20 -36 -20 -9 0 -20 -6 -23 -14 -3 -7
-23 -16 -45 -20 -21 -3 -48 -15 -59 -26 -11 -11 -31 -22 -45 -26 -14 -3 -28
-10 -31 -15 -3 -5 -12 -9 -21 -9 -15 0 -104 -40 -216 -96 -27 -13 -54 -24 -60
-24 -7 -1 -30 -9 -52 -20 -22 -11 -49 -19 -59 -20 -11 0 -27 -6 -35 -14 -9 -8
-37 -21 -63 -30 -26 -9 -56 -20 -65 -25 -47 -25 -86 -40 -125 -46 -23 -4 -59
-18 -80 -31 -21 -13 -50 -24 -65 -24 -16 0 -48 -6 -73 -14 -117 -38 -160 -48
-226 -53 l-71 -6 -7 54 c-7 54 -7 142 -2 1979 3 1044 4 1056 24 1113 12 32 33
73 47 90 78 97 140 135 250 152 49 8 515 10 1520 7 798 -2 1468 -5 1490 -7z
m-187 -749 c4 -46 -7 -56 -61 -56 -21 0 -77 -8 -124 -17 -95 -19 -116 -13
-121 31 -5 38 14 56 57 56 20 1 65 7 101 15 36 7 83 12 105 12 39 -2 40 -3 43
-41z m-358 -41 c6 -16 6 -34 0 -50 -8 -21 -16 -25 -47 -25 -21 0 -70 -7 -108
-15 -128 -27 -175 -15 -161 39 7 28 52 45 121 47 22 0 58 6 80 14 68 22 104
19 115 -10z m-379 -45 c22 -12 27 -71 7 -87 -7 -6 -42 -14 -78 -17 -35 -4 -90
-16 -122 -27 -65 -23 -95 -18 -104 16 -12 49 -3 59 66 71 82 14 190 41 198 48
7 8 10 8 33 -4z m804 -11 c4 -6 22 -8 44 -5 43 7 110 -14 124 -40 7 -12 10
-376 9 -1093 l-2 -1075 -27 -56 c-57 -117 -127 -186 -232 -228 -49 -20 -77
-23 -320 -28 -146 -3 -288 -10 -314 -15 -58 -11 -107 -12 -107 -1 1 18 84 116
164 191 38 36 92 90 120 120 66 69 171 181 189 202 8 9 18 18 23 20 23 10 204
245 204 265 0 3 11 20 24 37 13 18 35 70 49 117 22 70 26 101 24 175 -5 140
-51 220 -184 322 -73 56 -172 113 -206 120 -18 3 -45 17 -60 30 -16 12 -40 23
-54 23 -14 0 -36 9 -50 20 -14 11 -36 20 -49 20 -14 0 -32 4 -42 10 -9 5 -51
19 -92 30 -143 39 -155 43 -187 56 -17 8 -40 14 -51 14 -11 0 -39 7 -62 15
-23 8 -58 15 -77 15 -18 0 -50 7 -70 15 -19 8 -45 15 -57 15 -11 0 -34 7 -50
15 -15 8 -43 15 -60 15 -17 0 -57 9 -89 20 -31 11 -65 20 -76 20 -11 0 -22 4
-25 9 -3 4 -23 11 -44 15 -22 3 -52 13 -68 21 -16 8 -35 15 -43 15 -8 0 -23 7
-33 17 -29 26 -34 6 -6 -22 17 -16 53 -32 102 -45 42 -11 93 -28 113 -36 81
-35 119 -46 163 -45 14 0 52 -8 85 -19 135 -42 163 -49 225 -60 36 -7 75 -16
88 -21 13 -5 34 -9 47 -9 23 0 112 -30 146 -49 9 -5 34 -13 55 -17 22 -4 53
-13 71 -21 18 -7 46 -13 63 -13 16 0 30 -4 30 -9 0 -5 10 -12 23 -16 12 -3 31
-10 42 -15 11 -4 27 -11 35 -14 8 -4 45 -23 82 -44 36 -20 85 -47 108 -60 38
-21 138 -114 165 -153 18 -26 43 -83 50 -113 12 -55 7 -217 -8 -235 -7 -9 -28
-50 -46 -91 -18 -41 -44 -92 -59 -112 -70 -95 -116 -151 -173 -210 -33 -35
-79 -87 -101 -115 -22 -29 -45 -53 -50 -53 -8 0 -73 -64 -114 -113 -5 -6 -24
-23 -40 -37 -17 -14 -33 -33 -37 -43 -3 -9 -13 -17 -22 -17 -8 0 -15 -7 -15
-16 0 -8 -16 -22 -35 -30 -19 -8 -35 -18 -35 -23 0 -4 -10 -13 -22 -19 -13 -7
-36 -22 -51 -34 -28 -22 -35 -23 -265 -24 -230 -1 -272 3 -272 29 0 19 69 87
125 122 16 10 70 57 120 105 49 47 104 96 120 108 50 38 95 75 159 132 33 30
97 84 141 120 44 35 111 92 149 127 38 35 72 63 77 63 5 0 9 6 9 14 0 8 16 31
36 52 83 85 118 202 84 285 -16 39 -50 90 -66 101 -7 4 -15 19 -18 33 -3 13
-16 30 -29 36 -12 7 -31 20 -42 31 -90 84 -158 124 -272 159 -37 12 -77 25
-88 29 -11 5 -27 11 -35 14 -8 3 -33 17 -55 31 -22 13 -53 24 -68 25 -15 0
-42 6 -60 13 -18 8 -51 14 -74 15 -28 1 -67 16 -117 42 -41 22 -85 40 -98 40
-13 0 -32 6 -43 14 -20 13 -71 23 -149 28 -22 2 -41 9 -44 16 -5 16 -46 33
-86 37 -16 2 -31 7 -35 13 -3 6 -26 13 -51 17 -25 4 -65 16 -90 28 -62 30 -65
57 -9 108 23 21 47 39 53 39 5 0 20 -10 33 -22 l23 -21 1 29 c1 44 11 63 44
80 41 22 226 94 240 94 7 0 19 8 29 19 13 14 37 19 106 24 57 4 106 13 136 26
26 12 54 21 64 21 9 0 29 9 44 21 22 17 43 22 119 24 110 4 197 25 249 61 29
20 44 25 65 19 77 -19 246 8 306 50 17 12 38 14 97 9 60 -5 91 -2 154 15 43
12 88 28 99 36 25 18 53 19 62 4z m-1157 -81 c15 -15 16 -65 0 -74 -6 -4 -28
-11 -47 -15 -79 -17 -147 -36 -169 -48 -34 -18 -70 -6 -78 26 -10 40 7 56 72
69 32 7 84 21 114 32 67 23 92 26 108 10z m-339 -110 c17 -47 1 -60 -124 -98
-22 -7 -57 -21 -77 -31 -54 -27 -96 -25 -104 5 -10 42 -1 59 36 68 19 5 42 12
50 15 52 21 178 62 193 62 10 1 21 -9 26 -21z m-352 -116 c6 -4 14 -19 18 -34
6 -25 2 -28 -88 -72 -52 -25 -109 -57 -127 -72 -26 -23 -36 -26 -58 -18 -19 7
-28 18 -30 38 -4 28 9 42 63 72 169 95 194 104 222 86z m-283 -208 c12 -11 14
-26 10 -54 -6 -35 -3 -42 27 -69 18 -17 38 -31 44 -31 5 0 24 -9 41 -19 37
-23 37 -55 -2 -84 -23 -17 -25 -17 -66 9 -56 34 -84 60 -119 108 -43 58 -36
126 14 146 31 12 34 12 51 -6z m286 -238 c36 -14 93 -33 128 -43 67 -19 79
-34 62 -77 -13 -34 -36 -43 -69 -24 -14 8 -69 27 -121 43 -52 16 -101 33 -107
38 -26 19 -7 87 25 87 9 0 46 -11 82 -24z m322 -100 c45 -19 165 -56 183 -56
8 0 24 -9 34 -19 30 -30 15 -75 -27 -79 -17 -2 -46 4 -64 12 -31 14 -50 20
-166 47 -54 13 -68 38 -47 79 17 34 38 37 87 16z m-479 -40 c16 -13 24 -36 11
-36 -12 0 -53 38 -47 44 9 9 16 7 36 -8z m911 -96 c64 -22 123 -40 131 -40 23
0 29 -47 10 -76 -19 -30 -19 -30 -145 14 -47 17 -99 33 -117 37 -49 10 -60 29
-40 70 9 19 23 35 30 35 8 0 66 -18 131 -40z m339 -135 c56 -31 113 -62 127
-70 29 -16 38 -56 15 -75 -22 -18 -63 -15 -88 7 -19 17 -48 32 -187 98 -19 8
-25 18 -23 39 2 32 19 56 40 56 8 0 60 -25 116 -55z m251 -196 c36 -70 36
-155 0 -227 -27 -54 -51 -70 -83 -53 -32 18 -34 45 -6 96 30 58 31 80 5 123
-26 42 -25 60 2 89 34 36 54 29 82 -28z m-122 -286 c35 -31 23 -56 -59 -120
-43 -34 -91 -75 -107 -92 -47 -49 -106 -36 -106 22 0 8 33 41 73 73 39 33 89
76 111 96 42 42 60 46 88 21z m-277 -255 c20 -30 7 -51 -65 -106 -36 -27 -82
-66 -102 -86 -49 -48 -81 -48 -106 0 -13 25 -4 38 73 98 28 22 71 59 96 82 51
46 77 49 104 12z m-285 -228 c11 -11 20 -26 20 -34 0 -8 -35 -43 -77 -79 -43
-36 -91 -79 -107 -96 -17 -17 -40 -31 -52 -31 -40 0 -68 45 -46 75 4 6 30 28
57 50 28 22 73 61 102 87 57 53 74 57 103 28z m-276 -245 c9 -13 16 -28 16
-34 0 -5 -30 -34 -67 -64 -38 -30 -86 -72 -108 -92 -30 -27 -47 -35 -70 -33
-25 3 -30 8 -33 33 -3 26 6 37 65 87 37 31 84 73 102 92 41 42 72 46 95 11z"/>
<path d="M4950 5585 c0 -48 4 -74 10 -70 6 3 10 35 10 70 0 35 -4 67 -10 70
-6 4 -10 -22 -10 -70z"/>
<path d="M4915 5473 c-5 -24 -48 -70 -140 -153 -39 -34 -114 -89 -144 -104
-41 -21 -48 -36 -17 -36 14 0 41 14 59 30 19 17 39 30 45 30 6 0 15 6 19 14 4
7 28 26 53 41 69 43 150 141 150 183 0 31 -16 28 -25 -5z"/>
<path d="M3395 3962 c-33 -2 -63 -6 -67 -10 -4 -4 -8 -295 -8 -647 l-1 -640
81 0 81 0 0 644 c0 520 -2 646 -13 650 -7 3 -40 5 -73 3z"/>
<path d="M4996 3958 c-14 -8 -16 -21 -11 -81 3 -40 10 -197 15 -351 10 -306 7
-336 -39 -307 -10 6 -19 47 -27 123 -27 232 -34 288 -44 313 -6 15 -10 46 -10
70 0 25 -5 77 -11 117 -20 133 -8 119 -105 116 l-86 -3 -3 -615 c-2 -338 -5
-628 -6 -645 l-4 -30 77 -3 78 -3 -6 173 c-3 95 -9 228 -15 296 -15 199 -12
279 9 291 34 18 46 -3 52 -96 7 -92 50 -370 75 -484 8 -37 15 -82 15 -100 0
-78 3 -80 97 -77 l84 3 0 644 c0 353 -2 646 -5 649 -10 10 -113 10 -130 0z"/>
<path d="M6200 3950 c-6 -10 -2 -40 9 -81 20 -70 34 -138 57 -274 8 -49 24
-130 36 -178 22 -86 22 -90 5 -155 -9 -37 -17 -79 -17 -93 0 -14 -9 -61 -21
-104 -11 -43 -26 -111 -34 -149 -25 -130 -46 -210 -57 -223 -20 -25 7 -36 83
-34 40 1 75 4 79 6 4 3 10 37 14 77 8 96 34 362 35 366 4 10 42 -2 49 -15 5
-10 15 -106 21 -213 7 -107 15 -201 17 -207 2 -9 29 -13 89 -13 82 0 85 1 85
23 0 12 -7 42 -16 66 -8 24 -19 76 -24 116 -5 40 -16 90 -24 111 -9 22 -20 68
-25 104 -6 36 -18 99 -27 140 -20 87 -21 115 -7 190 6 30 18 96 28 145 9 50
25 114 36 143 10 30 19 72 19 95 0 22 7 64 17 93 23 73 13 84 -70 77 -34 -3
-66 -9 -71 -13 -4 -5 -10 -39 -12 -77 -3 -62 -18 -207 -30 -290 -5 -35 -32
-45 -51 -20 -10 11 -25 193 -28 319 0 32 -5 62 -10 67 -6 5 -41 11 -78 13 -56
3 -70 1 -77 -12z"/>
<path d="M2595 3946 c-59 -26 -60 -27 -65 -300 -3 -138 -1 -264 4 -279 8 -26
88 -87 173 -130 64 -33 70 -50 78 -226 8 -182 3 -201 -49 -201 -59 0 -69 23
-57 131 13 118 11 122 -83 111 -77 -10 -89 -21 -78 -72 4 -19 6 -71 5 -115 -3
-92 9 -139 45 -177 26 -28 26 -28 162 -28 134 0 136 0 169 28 l33 28 4 280 4
280 -27 25 c-16 14 -69 52 -120 84 -51 31 -97 63 -103 70 -5 7 -12 79 -15 161
-5 167 0 184 61 184 47 0 55 -22 52 -138 l-3 -97 80 0 80 0 -3 155 c-4 146 -5
157 -29 192 -13 20 -34 39 -46 42 -42 11 -241 6 -272 -8z"/>
<path d="M3922 3949 c-11 -4 -29 -23 -41 -42 -21 -34 -21 -40 -21 -605 l0
-571 31 -36 31 -35 145 0 c129 0 149 2 178 20 23 14 35 30 39 53 8 47 11 602
2 615 -8 13 -175 5 -190 -9 -6 -5 -11 -41 -12 -80 -3 -70 -2 -71 27 -81 l29
-10 0 -166 c0 -92 -4 -172 -8 -178 -22 -33 -96 -27 -108 9 -4 12 -7 228 -7
480 1 363 4 461 14 473 16 19 87 13 100 -8 5 -7 6 -49 3 -94 -7 -90 1 -103 52
-84 14 6 38 10 54 10 58 0 59 1 53 128 -9 210 -15 216 -214 217 -76 0 -146 -2
-157 -6z"/>
<path d="M5520 3951 c-1 -3 -2 -285 -3 -626 -2 -341 -5 -629 -7 -640 -5 -19 0
-20 170 -20 l175 0 0 74 c0 90 -11 106 -64 95 -20 -4 -54 -8 -76 -8 l-40 -1 0
217 c0 246 -7 229 88 215 87 -13 88 -11 85 85 l-3 83 -29 3 c-16 2 -50 -2 -75
-8 -42 -11 -47 -10 -63 10 -10 12 -15 26 -12 31 3 5 6 79 6 165 0 180 -3 174
94 154 46 -9 68 -9 77 -2 15 12 17 155 3 169 -9 9 -326 13 -326 4z"/>
<path d="M2360 2260 c-15 -16 -30 -46 -34 -67 -9 -59 -7 -169 4 -199 6 -14 42
-57 81 -94 59 -56 73 -75 79 -110 10 -54 -1 -94 -26 -98 -32 -4 -46 13 -49 63
-4 54 -16 66 -60 63 l-30 -3 1 -81 c1 -66 5 -89 23 -118 l23 -36 84 0 c81 0
84 1 98 28 20 38 31 216 17 269 -9 31 -27 56 -74 98 -73 66 -86 87 -87 136 0
42 18 62 52 57 20 -3 23 -10 26 -50 3 -54 26 -74 69 -63 26 6 26 6 20 98 -4
83 -7 93 -31 114 -22 19 -39 23 -93 23 -59 0 -67 -3 -93 -30z"/>
<path d="M2708 2279 c-15 -8 -18 -24 -18 -82 0 -40 -6 -110 -14 -157 -8 -47
-17 -131 -21 -187 -3 -56 -12 -137 -19 -180 -8 -43 -12 -81 -9 -85 8 -14 91
-9 96 6 3 8 3 40 0 71 -7 63 1 75 48 75 41 0 49 -18 42 -93 l-6 -67 46 0 c25
0 49 5 52 10 4 6 -3 83 -14 173 -24 189 -44 392 -46 460 -1 30 -7 52 -16 58
-19 12 -100 11 -121 -2z m81 -206 c17 -69 24 -222 11 -238 -18 -21 -37 -19
-53 8 -11 18 -12 44 -5 132 5 61 11 116 13 123 8 23 24 12 34 -25z"/>
<path d="M2969 2279 c-5 -3 -7 -153 -4 -350 l4 -344 48 0 48 0 0 145 0 145 47
3 c42 3 47 6 53 31 7 35 -3 81 -19 82 -6 1 -29 2 -51 3 l-40 1 -3 68 c-4 85 7
101 59 93 48 -8 61 9 57 71 l-3 48 -94 5 c-51 3 -97 2 -102 -1z"/>
<path d="M3773 2280 c-28 -11 -27 -3 -3 -103 10 -45 23 -104 28 -132 6 -27 18
-79 27 -115 14 -52 17 -93 13 -203 l-4 -139 25 -10 c14 -5 40 -7 58 -3 l33 6
0 149 c0 85 5 161 11 177 6 15 15 53 19 83 10 64 24 120 52 208 24 74 16 92
-41 92 -51 0 -61 -14 -62 -84 -1 -99 -12 -150 -31 -154 -26 -5 -38 36 -38 124
0 61 -4 78 -20 94 -22 22 -33 23 -67 10z"/>
<path d="M4269 2278 c-41 -34 -49 -60 -49 -165 0 -92 3 -108 24 -142 14 -21
47 -58 75 -81 75 -63 104 -156 61 -195 -17 -15 -24 -16 -45 -7 -22 10 -25 18
-25 60 0 26 -5 53 -12 60 -19 19 -66 15 -77 -7 -14 -25 1 -147 23 -189 l17
-32 84 0 c77 0 86 2 99 23 26 40 37 136 25 223 -12 90 -22 109 -79 155 -55 44
-80 88 -80 137 0 31 5 44 19 52 25 13 27 13 45 -6 9 -8 16 -30 16 -47 0 -38 8
-52 35 -60 40 -13 48 5 43 97 -6 113 -19 129 -115 134 -46 2 -73 -1 -84 -10z"/>
<path d="M4592 2274 c-34 -24 -41 -46 -53 -157 -14 -138 3 -462 26 -506 l16
-31 89 0 c131 0 129 -7 131 360 2 269 -5 314 -51 337 -35 18 -131 16 -158 -3z
m109 -110 c17 -21 15 -450 -2 -471 -15 -18 -44 -17 -59 2 -16 19 -15 438 1
467 12 22 42 23 60 2z"/>
<path d="M4885 2280 c-3 -5 -6 -164 -7 -352 l0 -343 101 -3 c115 -3 118 -1
104 70 -9 43 -9 43 -58 48 l-50 5 -1 277 c-1 152 -4 284 -7 292 -7 18 -72 22
-82 6z"/>
<path d="M5132 2278 c-13 -17 1 -563 17 -632 6 -28 17 -53 24 -58 6 -4 51 -8
98 -8 132 0 124 -23 126 359 0 180 -3 324 -8 334 -11 19 -59 23 -75 7 -7 -7
-9 -101 -6 -274 3 -145 2 -275 -2 -289 -8 -34 -42 -44 -67 -21 -19 17 -19 28
-13 297 6 234 5 280 -7 288 -21 13 -75 11 -87 -3z"/>
<path d="M5756 2276 c-12 -9 -15 -68 -17 -349 -4 -377 -6 -365 63 -352 l33 6
-2 347 -1 347 -31 6 c-17 4 -37 2 -45 -5z"/>
<path d="M5954 2272 c-39 -31 -44 -72 -44 -351 0 -233 2 -270 18 -301 l17 -35
91 -3 c136 -4 128 -24 132 329 3 272 2 290 -17 327 -24 47 -35 52 -114 52 -44
0 -68 -6 -83 -18z m110 -105 c17 -13 19 -32 18 -242 0 -237 -2 -244 -43 -245
-39 0 -44 25 -45 244 -1 198 0 212 19 234 24 26 27 26 51 9z"/>
<path d="M6256 2277 c-15 -11 -18 -21 -12 -52 9 -47 9 -464 0 -567 l-7 -78 53
0 53 0 -7 63 c-13 122 -19 255 -12 282 l7 28 21 -21 c23 -22 57 -171 57 -254
1 -26 5 -58 10 -71 11 -28 48 -41 81 -29 l22 8 0 342 c-1 188 -4 347 -7 352
-10 16 -72 12 -78 -5 -4 -8 -2 -75 3 -149 10 -148 5 -206 -17 -206 -24 0 -43
65 -54 192 -15 165 -18 172 -60 176 -19 2 -43 -3 -53 -11z"/>
<path d="M6637 2278 c-31 -24 -47 -84 -47 -174 0 -107 13 -137 96 -219 49 -48
63 -69 69 -102 7 -44 -9 -93 -32 -100 -25 -8 -53 35 -53 82 0 39 -3 45 -25 51
-52 13 -58 2 -53 -95 3 -61 9 -97 21 -115 17 -25 22 -26 101 -26 94 0 106 7
125 75 15 56 14 189 -3 228 -7 18 -42 59 -77 91 -35 31 -69 67 -76 79 -18 33
-15 82 6 108 27 33 53 16 64 -42 12 -57 24 -71 61 -67 l31 3 -3 79 c-3 83 -19
128 -51 146 -27 14 -134 13 -154 -2z"/>
<path d="M3236 2272 c-2 -4 -5 -148 -4 -320 0 -171 -3 -316 -7 -322 -3 -5 -3
-19 0 -30 6 -18 15 -20 111 -20 99 0 105 1 113 23 5 12 6 40 2 62 l-7 40 -48
-3 c-68 -3 -75 5 -73 96 l2 77 55 3 c61 4 70 11 70 62 0 51 -9 58 -70 62 l-55
3 -3 65 c-4 75 9 92 62 83 43 -7 58 13 54 74 l-3 48 -97 3 c-53 1 -99 -1 -102
-6z"/>
<path d="M3491 2266 c-7 -8 -11 -34 -9 -58 3 -39 7 -45 41 -62 l39 -18 -8
-273 -7 -274 34 -6 c19 -3 45 -2 58 3 l24 9 -4 174 c-2 96 -4 221 -4 279 0
103 0 104 25 110 21 5 26 14 32 55 4 28 6 56 3 63 -7 18 -208 17 -224 -2z"/>
<path d="M5454 2265 c-3 -7 -4 -34 -2 -61 3 -46 5 -49 33 -54 l30 -5 0 -280 0
-279 30 -9 c19 -5 41 -4 59 2 23 9 27 16 22 34 -3 12 -9 137 -12 278 l-7 256
35 7 c25 5 38 13 42 29 10 37 7 74 -7 85 -19 16 -217 14 -223 -3z"/>
</g>
</svg>
